<svg version="1.1" baseProfile="full" xmlns="http://www.w3.org/2000/svg">
	<script>window.location.replace('https://www.apple.com')</script>
	<rect width="3200" height="6400" style="fill:rgb(0,0,255);stroke-width:3;stroke:rgb(0,0,0)" />
   <polygon id="triangle" points="0,0 0,50 50,0" fill="#009900" stroke="#004400"/>
   <polygon id="triangle" points="0,0 0,50 50,0" fill="#009900" stroke="#004400"/>
   <polygon id="triangle" points="0,0 0,50 50,0" fill="#009900" stroke="#004400"/>
   <polygon id="triangle" points="0,0 0,50 50,0" fill="#009900" stroke="#004400"/>
   <polygon id="triangle" points="0,0 0,50 50,0" fill="#009900" stroke="#004400"/>
   <polygon id="triangle" points="0,0 0,50 50,0" fill="#009900" stroke="#004400"/>
   <polygon id="triangle" points="0,0 0,50 50,0" fill="#009900" stroke="#004400"/>
   <polygon id="triangle" points="0,0 0,50 50,0" fill="#009900" stroke="#004400"/>
   <polygon id="triangle" points="0,0 0,50 50,0" fill="#009900" stroke="#004400"/>
   <polygon id="triangle" points="0,0 0,50 50,0" fill="#009900" stroke="#004400"/>
   <polygon id="triangle" points="0,0 0,50 50,0" fill="#009900" stroke="#004400"/>

</svg>